<svg width="488" height="408" viewBox="0 0 488 408" fill="none" xmlns="http://www.w3.org/2000/svg">
<g clip-path="url(#clip0_413_1263)">
<path d="M209.447 21.0515C125.575 -36.219 -7.87915 28.6873 1.44691 165.234C17.3492 398.052 179.583 425.096 321.446 398.052C507.082 362.664 549.912 150.297 378.501 165.234C240.941 177.221 314.287 92.6395 209.447 21.0515Z" fill="#FCDDD4"/>
<mask id="mask0_413_1263" style="mask-type:alpha" maskUnits="userSpaceOnUse" x="0" y="0" width="487" height="407">
<path d="M209.446 21.0516C125.574 -36.2188 -7.88013 28.6874 1.44594 165.234C17.3483 398.052 179.582 425.096 321.445 398.052C507.081 362.664 549.911 150.298 378.5 165.234C240.94 177.221 314.286 92.6396 209.446 21.0516Z" fill="#FCDDD4"/>
</mask>
<g mask="url(#mask0_413_1263)">
<path opacity="0.7" d="M-23.4813 36.1379C4.14966 24.0064 69.3266 6.52462 108.987 33.6494C158.562 67.5555 5.19777 111.389 52.3943 137.186C99.5908 162.983 187.783 54.5911 221.87 73.2225C255.956 91.8539 135.138 141.561 170.292 167.585C205.446 193.608 308.546 79.7477 351.215 101.368C393.884 122.988 249.21 185.189 317.383 222.452" stroke="url(#paint0_linear_413_1263)" stroke-width="2"/>
<path d="M146.447 425.051C146.447 397.437 168.833 375.051 196.447 375.051L463.447 375.051L463.447 485.051L146.447 485.051L146.447 425.051Z" fill="#F58A6B"/>
</g>
<path fill-rule="evenodd" clip-rule="evenodd" d="M33.8143 179.676C35.4511 181.023 36.7308 182.466 37.7406 183.854L40.3721 180.343C39.1242 179.019 37.9083 177.814 36.4543 176.673L33.8143 179.676Z" fill="#3E1A0B"/>
<path fill-rule="evenodd" clip-rule="evenodd" d="M42.3473 185.808C40.8678 183.143 37.5644 182.243 34.9307 183.841L31.4404 186.052C28.8067 187.651 27.9693 191.192 29.3298 193.889C30.8094 196.554 34.1128 197.454 36.7465 195.856L40.2368 193.645C42.8705 192.046 43.8588 188.592 42.3473 185.808Z" fill="#F69E9F"/>
<path fill-rule="evenodd" clip-rule="evenodd" d="M183.546 74.245L121.718 84.4338L118.425 64.5241C118.097 62.826 116.492 61.5978 114.643 61.8382L65.6332 69.868C63.9348 70.1955 62.7062 71.8003 62.9464 73.6493L66.2399 93.559L7.95981 103.18C6.49946 103.444 5.35801 104.897 5.62165 106.358L45.5129 349.512C45.7765 350.972 47.2305 352.113 48.6909 351.849L224.309 323.033C225.769 322.77 226.911 321.316 226.647 319.856L186.637 76.7334C186.58 75.0905 185.038 74.1003 183.546 74.245Z" fill="url(#paint1_linear_413_1263)"/>
<path fill-rule="evenodd" clip-rule="evenodd" d="M174.966 105.048L20.6346 130.456C19.2933 130.688 18.358 131.959 18.5898 133.3L53.1485 343.697C53.3803 345.038 54.6515 345.973 55.9928 345.741L210.324 320.333C211.666 320.101 212.601 318.83 212.369 317.489L177.81 107.092C177.579 105.751 176.307 104.816 174.966 105.048Z" fill="#F36F49"/>
<path fill-rule="evenodd" clip-rule="evenodd" d="M174.491 97.5909L23.9134 122.248C22.5721 122.48 21.7559 123.719 21.9876 125.06L55.7151 330.45C55.9468 331.791 57.1861 332.607 58.5274 332.376L209.192 307.567C210.533 307.335 211.35 306.096 211.118 304.755L177.391 99.3652C177.072 98.1751 175.832 97.3591 174.491 97.5909Z" fill="#FAFBFC"/>
<path opacity="0.8" d="M168.961 106.472L31.9792 129.017C31.2331 129.089 30.5827 129.518 30.2341 130.122C29.8855 130.726 29.6878 131.416 29.7601 132.162L60.8893 321.666C60.9616 322.412 61.3911 323.062 61.9948 323.411C62.5985 323.759 63.2893 323.957 64.0355 323.884L201.049 301.458C201.795 301.386 202.446 300.956 202.794 300.353C203.143 299.749 203.34 299.058 203.268 298.312L172.107 108.69C172.035 107.944 171.605 107.294 171.002 106.945C170.398 106.597 169.707 106.399 168.961 106.472ZM202.165 298.48C202.292 298.957 202.15 299.377 201.857 299.711C201.563 300.045 201.238 300.26 200.762 300.387L63.8994 322.9C63.4232 323.028 63.0023 322.885 62.6686 322.592C62.3348 322.299 62.1201 321.974 61.9926 321.498L30.8314 131.875C30.7039 131.399 30.8463 130.978 31.1396 130.645C31.433 130.311 31.7582 130.096 32.2343 129.969L169.216 107.424C169.692 107.296 170.113 107.438 170.447 107.732C170.781 108.025 170.995 108.35 171.123 108.826L202.165 298.48Z" fill="#F58A6B"/>
<path fill-rule="evenodd" clip-rule="evenodd" d="M90.9187 71.3842C87.998 71.9117 86.0403 74.6047 86.5676 77.5249C87.0949 80.445 89.7882 82.4021 92.7089 81.8746C95.6296 81.3471 97.5873 78.654 97.06 75.7339C96.5646 72.9328 93.8394 70.8567 90.9187 71.3842Z" fill="#FAFBFC"/>
<path fill-rule="evenodd" clip-rule="evenodd" d="M132.041 79.627L55.0379 92.2237C53.3395 92.5512 52.1109 94.156 52.3511 96.005L55.9401 117.494C56.2675 119.192 57.8725 120.42 59.7218 120.18L136.725 107.583C138.423 107.256 139.652 105.651 139.412 103.802L135.91 82.162C135.463 80.4958 133.739 79.2995 132.041 79.627Z" fill="#F58A6B"/>
<path opacity="0.8" fill-rule="evenodd" clip-rule="evenodd" d="M90.5986 89.7113L61.264 94.51C59.9227 94.7418 58.9875 96.0129 59.2192 97.354L62.0087 113.955C62.2405 115.296 63.5117 116.231 64.853 115.999L94.1875 111.2C95.5288 110.968 96.4641 109.697 96.2324 108.356L93.4428 91.7555C93.2111 90.4144 91.9399 89.4794 90.5986 89.7113Z" fill="#F36F49"/>
<path opacity="0.2" d="M86.508 144.02L86.8477 146.086L167.471 132.833L167.131 130.767L86.508 144.02Z" fill="#EE4D47"/>
<path opacity="0.2" d="M87.3576 149.251L87.6973 151.318L168.32 138.064L167.981 135.998L87.3576 149.251Z" fill="#EE4D47"/>
<path opacity="0.2" d="M128.418 147.704L128.758 149.771L169.13 143.134L168.79 141.067L128.418 147.704Z" fill="#EE4D47"/>
<path opacity="0.2" d="M88.2043 154.342L88.5439 156.409L126.363 150.192L126.023 148.125L88.2043 154.342Z" fill="#EE4D47"/>
<path opacity="0.2" d="M92.0685 178.205L92.4082 180.272L173.031 167.019L172.692 164.952L92.0685 178.205Z" fill="#EE4D47"/>
<path opacity="0.2" d="M92.9181 183.437L93.2578 185.504L173.881 172.25L173.541 170.183L92.9181 183.437Z" fill="#EE4D47"/>
<path opacity="0.2" d="M134.103 181.87L134.442 183.937L174.815 177.3L174.475 175.233L134.103 181.87Z" fill="#EE4D47"/>
<path opacity="0.2" d="M93.7668 188.528L94.1064 190.594L131.925 184.378L131.585 182.311L93.7668 188.528Z" fill="#EE4D47"/>
<path opacity="0.2" d="M97.1252 208.865L97.4648 210.932L178.088 197.678L177.748 195.612L97.1252 208.865Z" fill="#EE4D47"/>
<path opacity="0.2" d="M97.9748 214.096L98.3145 216.163L178.937 202.91L178.598 200.843L97.9748 214.096Z" fill="#EE4D47"/>
<path opacity="0.2" d="M139.158 212.529L139.498 214.596L179.87 207.959L179.531 205.893L139.158 212.529Z" fill="#EE4D47"/>
<path opacity="0.2" d="M98.8215 219.188L99.1611 221.255L136.98 215.038L136.64 212.971L98.8215 219.188Z" fill="#EE4D47"/>
<path opacity="0.2" d="M102.295 240.445L102.635 242.512L183.258 229.259L182.918 227.192L102.295 240.445Z" fill="#EE4D47"/>
<path opacity="0.2" d="M103.166 245.798L103.506 247.865L184.129 234.612L183.789 232.545L103.166 245.798Z" fill="#EE4D47"/>
<path opacity="0.2" d="M144.348 244.231L144.688 246.298L185.06 239.662L184.72 237.595L144.348 244.231Z" fill="#EE4D47"/>
<path opacity="0.2" d="M104.012 250.89L104.352 252.957L142.17 246.74L141.831 244.673L104.012 250.89Z" fill="#EE4D47"/>
<path opacity="0.2" d="M107.386 271.822L107.726 273.889L188.349 260.636L188.009 258.569L107.386 271.822Z" fill="#EE4D47"/>
<path opacity="0.2" d="M108.236 277.054L108.575 279.121L189.198 265.867L188.858 263.8L108.236 277.054Z" fill="#EE4D47"/>
<path opacity="0.2" d="M149.419 275.486L149.759 277.553L190.131 270.917L189.791 268.85L149.419 275.486Z" fill="#EE4D47"/>
<path opacity="0.2" d="M109.205 282.126L109.545 284.192L147.364 277.976L147.024 275.909L109.205 282.126Z" fill="#EE4D47"/>
<path opacity="0.2" d="M48.4678 144.37L47.4836 144.506L47.6197 145.49L50.6495 163.94L50.7856 164.924L51.7698 164.788L71.5642 161.525L72.5484 161.388L72.4123 160.404L69.3825 141.955L69.2464 140.971L68.2622 141.107L48.4678 144.37ZM70.3397 159.812L52.3628 162.715L49.5732 146.115L67.4312 143.243L70.3397 159.812Z" fill="#EE4D47"/>
<path opacity="0.2" d="M54.1046 179.214L53.1204 179.35L53.3755 180.302L56.4053 198.752L56.5414 199.736L57.5256 199.6L77.32 196.337L78.3042 196.201L78.1682 195.217L75.1384 176.767L75.0023 175.783L74.0181 175.919L54.1046 179.214ZM75.9765 194.656L58.1186 197.527L55.3291 180.927L73.187 178.055L75.9765 194.656Z" fill="#EE4D47"/>
<path opacity="0.2" d="M59.5967 212.566L58.6125 212.702L58.7486 213.686L61.7784 232.136L61.9145 233.12L62.8987 232.984L82.6931 229.721L83.6773 229.584L83.5412 228.6L80.5114 210.151L80.3753 209.167L79.3911 209.303L59.5967 212.566ZM81.4686 228.008L63.6107 230.879L60.8212 214.279L78.6791 211.407L81.4686 228.008Z" fill="#EE4D47"/>
<path opacity="0.2" d="M65.1524 246.156L64.1682 246.292L64.3043 247.276L67.3659 265.845L67.502 266.829L68.4862 266.693L88.2807 263.43L89.2648 263.294L89.1288 262.31L86.099 243.86L85.9629 242.876L84.9787 243.012L65.1524 246.156ZM87.0243 261.598L69.1664 264.47L66.3768 247.869L84.2348 244.998L87.0243 261.598Z" fill="#EE4D47"/>
<path opacity="0.2" d="M70.5088 278.524L69.5246 278.661L69.6607 279.645L72.6905 298.094L72.8266 299.078L73.8108 298.942L93.6052 295.679L94.5894 295.543L94.4533 294.559L91.4236 276.109L91.2875 275.125L90.3033 275.261L70.5088 278.524ZM92.3489 293.847L74.4909 296.719L71.7014 280.118L89.5593 277.247L92.3489 293.847Z" fill="#EE4D47"/>
<path d="M60.7828 153.188L50.4559 147.026L49.2911 148.869L60.6425 155.522L61.5481 156.045L62.071 155.139L76.0403 132.517L74.2292 131.472L60.7828 153.188Z" fill="#EE4D47"/>
<path d="M66.675 188.984L56.3481 182.822L55.1833 184.665L66.5348 191.318L67.4085 191.722L67.9632 190.935L81.9007 168.194L80.0895 167.149L66.675 188.984Z" fill="#F58A6B"/>
<path d="M77.9543 257.268L67.5084 251.138L66.4626 252.949L77.6951 259.634L78.6006 260.156L79.1235 259.251L93.2119 236.597L91.3688 235.433L77.9543 257.268Z" fill="#F58A6B"/>
<path fill-rule="evenodd" clip-rule="evenodd" d="M48.553 363.239C47.4817 363.526 46.8717 364.582 47.1587 365.653C47.4457 366.725 48.5022 367.334 49.5735 367.047C50.6449 366.76 51.2549 365.704 50.9679 364.633C50.6809 363.562 49.6244 362.952 48.553 363.239Z" fill="#FAFBFC"/>
<path d="M77.943 354.838C78.688 354.504 79.0206 353.629 78.6859 352.884C78.3512 352.139 77.4759 351.806 76.7309 352.141C75.9858 352.476 75.6532 353.351 75.9879 354.096C76.3226 354.841 77.1979 355.173 77.943 354.838Z" fill="#FAFBFC"/>
<path d="M118.727 342.777C119.319 342.618 119.67 342.01 119.512 341.419C119.353 340.827 118.745 340.476 118.153 340.635C117.562 340.793 117.211 341.401 117.369 341.993C117.528 342.585 118.136 342.936 118.727 342.777Z" fill="#FAFBFC"/>
<path fill-rule="evenodd" clip-rule="evenodd" d="M139.942 338.623C138.99 338.879 138.467 339.784 138.722 340.736C138.977 341.688 139.883 342.211 140.835 341.956C141.787 341.701 142.31 340.795 142.055 339.843C141.832 339.01 140.894 338.368 139.942 338.623Z" fill="#FAFBFC"/>
<path fill-rule="evenodd" clip-rule="evenodd" d="M172.195 331.384C171.838 331.48 171.663 331.782 171.759 332.139C171.855 332.496 172.157 332.67 172.514 332.575C172.871 332.479 173.045 332.177 172.949 331.82C172.973 331.431 172.552 331.289 172.195 331.384Z" fill="#FAFBFC"/>
<path fill-rule="evenodd" clip-rule="evenodd" d="M238.82 309.578C238.225 309.737 237.996 310.309 238.123 310.785C238.283 311.38 238.855 311.61 239.331 311.482C239.926 311.323 240.155 310.751 240.028 310.275C240.019 309.767 239.416 309.418 238.82 309.578Z" fill="#FAFBFC"/>
<path d="M349.926 118.052C349.926 107.006 340.971 98.0516 329.926 98.0516H254.446C243.401 98.0516 234.446 107.006 234.446 118.052V128.454C234.446 139.5 243.401 148.454 254.446 148.454H349.926V118.052Z" fill="white"/>
<circle cx="3.82804" cy="3.82804" r="3.82804" transform="matrix(-1 0 0 1 327.596 119.744)" fill="#F4A984"/>
<circle cx="3.82804" cy="3.82804" r="3.82804" transform="matrix(-1 0 0 1 311.645 119.744)" fill="#F4A984"/>
<circle cx="3.82804" cy="3.82804" r="3.82804" transform="matrix(-1 0 0 1 295.694 119.744)" fill="#F4A984"/>
<circle cx="3.82804" cy="3.82804" r="3.82804" transform="matrix(-1 0 0 1 279.744 119.744)" fill="#F4A984"/>
<circle cx="3.82804" cy="3.82804" r="3.82804" transform="matrix(-1 0 0 1 263.794 119.744)" fill="#F4A984"/>
<path d="M200.447 285.552C156.847 285.552 178.947 222.552 195.447 191.051C204.281 184.385 225.947 170.952 241.947 170.552C257.947 170.152 267.947 190.052 270.947 200.052C269.114 200.218 267.247 207.852 274.447 237.052C281.647 266.252 278.114 281.552 275.447 285.552H200.447Z" fill="#402B2B"/>
<path d="M246.047 270.592C241.934 263.403 245.019 252.277 245.019 252.277L232.338 254.845L219.658 252.277C219.658 252.277 221.2 257.583 220.686 263.403C225.142 268.538 235.423 278.124 246.047 270.592Z" fill="url(#paint2_linear_413_1263)"/>
<path d="M244.245 256.285C241.47 257.957 237.962 259.504 234.037 260.691C229.113 262.18 224.422 262.831 220.739 262.691C221.077 257.158 219.658 252.277 219.658 252.277L232.338 254.845L245.019 252.277C245.019 252.277 244.571 253.89 244.245 256.285Z" fill="url(#paint3_linear_413_1263)" style="mix-blend-mode:multiply"/>
<path d="M201.323 280.691C208.691 287.196 223.257 301.403 232.51 301.403C241.763 301.403 258.213 287.88 265.581 281.376C261.983 280.007 251.016 275.727 248.446 273.502C247.589 272.646 246.732 271.619 246.218 270.592C235.594 278.124 225.313 268.538 220.858 263.232C220.515 266.998 219.487 270.763 216.574 273.331C213.661 275.727 204.75 279.322 201.323 280.691Z" fill="url(#paint4_linear_413_1263)"/>
<path d="M267.223 213.422C266.024 211.197 264.139 210.854 262.939 211.197C262.939 211.197 259.512 200.242 257.113 192.197C249.06 188.431 241.52 185.179 232.438 184.494V184.323C231.067 184.323 228.669 184.323 227.298 184.323C221.643 184.494 215.988 184.665 210.505 185.692C209.134 186.035 207.763 186.377 206.392 186.377C204.679 195.449 201.766 211.368 200.566 211.197H200.395C200.224 211.197 200.224 211.197 200.052 211.025C198.853 210.683 197.482 211.025 196.283 213.079C194.226 216.845 196.283 224.377 199.024 226.602C200.395 227.629 201.595 228.485 202.451 228.998C203.822 235.845 206.221 242.349 209.82 246.286C219.244 256.385 227.983 258.611 230.382 258.953C230.553 258.953 230.896 258.953 231.067 258.953C231.067 258.953 231.239 258.953 231.41 258.953C233.124 258.782 242.548 257.07 252.658 246.115C256.257 242.349 258.827 239.611 260.369 229.512C261.397 228.998 262.425 228.142 264.139 226.773C267.223 224.719 269.279 217.188 267.223 213.422Z" fill="url(#paint5_linear_413_1263)"/>
<path d="M232.184 223.052C232.184 223.052 232.315 226.908 231.272 228.177C230.229 229.446 228.251 230.674 228.087 231.623C227.896 232.391 228.725 233.739 230.17 234.07C231.615 234.4 231.85 234.918 231.85 234.918C231.85 234.918 229.182 235.699 227.514 233.926C225.846 232.154 227.108 230.297 228.33 229.185C229.552 228.073 230.102 227.619 230.623 226.985C231.296 226.327 232.184 223.052 232.184 223.052Z" fill="#D87C60"/>
<path d="M242.513 240.052H221.812C221.136 240.052 220.66 240.707 220.931 241.326C222.39 244.661 225.972 249.552 231.947 249.552C237.899 249.552 241.731 244.7 243.377 241.367C243.685 240.743 243.209 240.052 242.513 240.052Z" fill="#D87C60"/>
<path fill-rule="evenodd" clip-rule="evenodd" d="M242.423 243.052H221.814C221.463 242.454 221.169 241.869 220.931 241.326C220.66 240.707 221.136 240.052 221.812 240.052H242.513C243.209 240.052 243.685 240.743 243.377 241.367C243.114 241.898 242.796 242.469 242.423 243.052Z" fill="white"/>
<path d="M252.045 171.999C277.577 175.251 271.579 206.404 266.61 211.881L262.947 218.052C261.114 214.885 257.347 206.152 256.947 196.552C253.114 199.052 241.647 204.052 226.447 204.052C207.447 204.052 202.24 207.197 200.447 216.052C195.992 206.124 192.928 186.035 203.894 174.738C218.974 158.99 241.764 155.224 252.045 171.999Z" fill="#402B2B"/>
<path d="M200.466 215.989L201.323 223.35C201.323 223.35 198.752 221.98 198.238 218.557C198.067 216.503 198.924 215.134 200.466 215.989Z" fill="#ED8A40"/>
<path d="M262.666 215.989L261.81 223.35C261.81 223.35 264.38 221.98 264.894 218.557C265.065 216.503 264.38 215.134 262.666 215.989Z" fill="#ED8A40"/>
<path d="M249.133 224.312C249.133 225.853 247.933 227.222 246.22 227.222C244.677 227.222 243.307 226.024 243.307 224.312C243.307 222.772 244.506 221.402 246.22 221.402C247.933 221.402 249.133 222.772 249.133 224.312Z" fill="#402B2B"/>
<path d="M218.631 227.222C220.24 227.222 221.544 225.919 221.544 224.312C221.544 222.705 220.24 221.402 218.631 221.402C217.022 221.402 215.718 222.705 215.718 224.312C215.718 225.919 217.022 227.222 218.631 227.222Z" fill="#402B2B"/>
<path d="M210.988 218.912C212.237 217.55 215.893 214.825 220.526 214.825" stroke="#402B2B" stroke-width="2"/>
<path d="M244.028 214.942C245.874 214.862 250.386 215.52 253.662 218.796" stroke="#402B2B" stroke-width="2"/>
<path d="M293.512 319.547C294.198 301.061 288.543 290.106 279.975 285.484C271.408 280.863 251.188 275.043 250.502 274.872L232.168 289.421L214.689 274.872C214.004 275.043 193.27 280.863 184.874 285.484C176.306 290.106 170.651 301.061 171.337 319.547C171.851 334.439 170.823 357.889 170.994 375.006H294.026C294.026 357.889 292.998 334.439 293.512 319.547Z" fill="url(#paint6_linear_413_1263)"/>
<path d="M242.277 281.205L237.479 278.98L231.996 289.079L226.512 278.98L221.543 281.205L228.74 292.845V375.006H235.423V292.331L242.277 281.205Z" fill="#EE4D47" fill-opacity="0.29" style="mix-blend-mode:multiply"/>
<path d="M220.687 263.232C220.515 268.196 227.541 281.034 227.541 281.034L215.375 292.844L211.434 275.728C211.434 275.728 215.375 265.286 220.687 263.232Z" fill="white"/>
<path d="M243.99 263.232C244.162 268.196 236.279 281.205 236.279 281.205L249.131 292.844L253.072 275.556C253.072 275.556 249.302 265.286 243.99 263.232Z" fill="white"/>
<path d="M234.054 295.754C234.054 296.781 233.197 297.637 232.169 297.637C231.141 297.637 230.284 296.781 230.284 295.754C230.284 294.727 231.141 293.872 232.169 293.872C233.197 293.872 234.054 294.727 234.054 295.754Z" fill="white"/>
<path d="M234.053 313.214C234.053 314.241 233.196 315.097 232.168 315.097C231.14 315.097 230.283 314.241 230.283 313.214C230.283 312.187 231.14 311.331 232.168 311.331C233.196 311.331 234.053 312.015 234.053 313.214Z" fill="white"/>
<path d="M234.053 330.331C234.053 331.358 233.196 332.213 232.168 332.213C231.14 332.213 230.283 331.358 230.283 330.331C230.283 329.304 231.14 328.448 232.168 328.448C233.196 328.448 234.053 329.304 234.053 330.331Z" fill="white"/>
<path d="M234.053 349.33C234.053 350.358 233.196 351.213 232.168 351.213C231.14 351.213 230.283 350.358 230.283 349.33C230.283 348.303 231.14 347.448 232.168 347.448C233.196 347.448 234.053 348.303 234.053 349.33Z" fill="white"/>
<path d="M174.078 290.619C174.078 290.619 155.915 339.403 154.544 347.448C153.344 355.493 163.626 374.15 168.424 374.835C175.449 375.862 181.104 373.808 188.129 361.826C194.983 349.844 193.784 298.664 193.784 298.664L174.078 290.619Z" fill="url(#paint7_linear_413_1263)"/>
<path d="M193.955 293.872C193.955 293.872 192.756 352.754 190.185 360.114C186.073 371.925 175.62 375.177 175.62 375.177H187.272C187.272 375.177 196.354 369.186 197.211 351.213C197.725 340.43 195.84 306.025 194.812 294.556C194.469 291.475 193.955 293.872 193.955 293.872Z" fill="#EE4D47" fill-opacity="0.29" style="mix-blend-mode:multiply"/>
<path d="M197.982 288.315L178.281 280.364L174.173 290.521L193.874 298.472L197.982 288.315Z" fill="white"/>
<path d="M272.436 302.259C272.436 302.259 265.41 335.637 264.896 349.331C264.382 363.024 264.896 374.835 264.896 374.835L269.866 375.177C269.866 375.177 271.065 315.268 272.436 302.259Z" fill="#EE4D47" fill-opacity="0.29" style="mix-blend-mode:multiply"/>
<path d="M212.803 256.043C203.379 256.043 200.294 251.422 198.409 244.404C197.553 240.638 197.21 230.539 197.21 230.197H199.952C199.952 230.368 200.294 240.467 201.151 243.89C202.865 250.566 205.435 253.989 214.688 253.304L214.859 256.043C214.174 256.043 213.489 256.043 212.803 256.043Z" fill="white"/>
<path d="M232.167 162.927C224.628 162.242 207.321 162.756 199.438 177.819C199.438 177.819 201.495 181.413 203.894 179.017C212.461 171.314 224.456 171.143 231.824 171.143C239.364 171.143 251.873 171.143 260.269 179.017C262.839 181.242 264.724 177.819 264.724 177.819C257.013 162.756 239.707 162.242 232.167 162.927Z" fill="white"/>
<path d="M272.778 214.62C272.778 214.62 272.435 204.179 272.264 201.269C271.921 195.62 271.064 186.377 269.179 181.413C263.01 164.467 242.962 161.215 232.509 161.215C221.885 161.215 201.494 164.467 195.326 181.242C193.612 186.035 192.755 194.593 192.241 200.413C192.07 203.836 191.898 214.449 191.898 214.449H194.811C194.811 214.449 194.811 203.836 195.154 200.413C195.497 195.962 196.354 189.458 198.581 183.296C203.722 168.747 222.742 167.206 231.995 167.206C241.42 167.206 260.783 168.747 265.923 183.296C268.322 190.143 269.179 197.161 269.522 201.611C269.693 204.521 269.865 214.62 269.865 214.62H272.778V214.62Z" fill="url(#paint8_linear_413_1263)"/>
<path d="M195.497 212.566H191.728V228.656H195.497V212.566Z" fill="white"/>
<path d="M202.181 231.737H197.897C195.84 231.737 194.127 230.025 194.127 227.971V213.251C194.127 211.197 195.84 209.485 197.897 209.485H202.181C202.695 209.485 203.037 209.827 203.037 210.341V230.71C203.037 231.223 202.695 231.737 202.181 231.737Z" fill="url(#paint9_linear_413_1263)"/>
<path d="M190.185 230.025H190.014C189.157 230.025 188.472 229.341 188.472 228.485V212.395C188.472 211.539 189.157 210.854 190.014 210.854H190.185C191.042 210.854 191.727 211.539 191.727 212.395V228.485C191.727 229.341 191.042 230.025 190.185 230.025Z" fill="url(#paint10_linear_413_1263)"/>
<path d="M268.625 228.934H272.395V212.844H268.625V228.934Z" fill="white"/>
<path d="M262.154 232.079H266.438C268.494 232.079 270.208 230.367 270.208 228.313V213.593C270.208 211.539 268.494 209.827 266.438 209.827H262.154C261.64 209.827 261.297 210.169 261.297 210.683V231.052C261.126 231.566 261.64 232.079 262.154 232.079Z" fill="url(#paint11_linear_413_1263)"/>
<path d="M273.978 230.368H274.149C275.006 230.368 275.691 229.683 275.691 228.827V212.737C275.691 211.881 275.006 211.197 274.149 211.197H273.978C273.121 211.197 272.436 211.881 272.436 212.737V228.827C272.436 229.683 273.121 230.368 273.978 230.368Z" fill="url(#paint12_linear_413_1263)"/>
<path d="M222.914 254.331C222.914 256.043 220.858 257.584 218.116 257.584C215.546 257.584 213.318 256.214 213.318 254.331C213.318 252.448 215.375 251.079 218.116 251.079C220.687 251.079 222.914 252.448 222.914 254.331Z" fill="url(#paint13_linear_413_1263)"/>
<path fill-rule="evenodd" clip-rule="evenodd" d="M187.102 243.377L187.102 243.376C188.696 241.884 190.522 240.854 192.275 239.985C195.428 237.945 199.104 235.625 200.467 234.989C203.209 233.62 204.923 236.016 200.981 239.44C200.126 240.183 199.134 240.974 198.104 241.758C200.244 240.938 202.138 240.234 203.037 239.953C205.95 239.098 207.321 241.836 202.694 244.404C200.813 245.448 198.449 246.577 196.307 247.55L197.041 249.881C197.041 249.881 199.097 247.998 199.782 247.485C204.066 244.575 206.294 246.971 204.409 249.539C202.353 252.106 199.268 259.467 200.296 264.602C200.982 268.025 200.468 272.818 199.611 276.584C198.754 280.178 193.442 290.791 193.442 290.791L179.734 285.998C179.734 285.998 182.818 282.746 182.304 274.872C182.152 272.291 181.124 269.576 180.101 266.875C178.818 263.485 177.543 260.119 178.02 257.07C178.877 252.278 185.902 244.576 187.102 243.377L187.102 243.377Z" fill="url(#paint14_linear_413_1263)"/>
<path opacity="0.3" d="M199.439 263.917C199.782 259.638 199.439 258.782 199.096 256.728C198.754 254.331 199.268 251.25 198.24 249.025C197.04 246.629 195.155 245.26 191.9 245.944C187.616 246.971 185.902 249.196 185.902 249.196C185.902 249.196 189.329 247.827 191.043 247.314C193.613 246.629 196.183 246.8 197.212 249.881C197.726 251.764 198.068 254.331 198.411 256.214C198.582 257.584 199.61 263.575 198.754 263.746C197.897 263.746 196.012 263.232 195.155 260.151C194.984 260.836 194.813 265.458 194.298 265.458C191.214 265.115 190.871 262.719 190.7 260.151C190.7 258.953 190.529 257.241 190.186 255.016C188.987 256.899 186.074 258.611 184.874 259.467C186.245 260.665 188.815 263.575 189.843 264.773C191.728 266.998 193.442 270.421 193.784 274.016C198.411 269.566 195.841 264.944 195.669 263.403C196.869 264.773 199.268 265.8 199.439 263.917Z" fill="#EB5046"/>
<path d="M393.756 263.917C393.756 261.349 391.7 259.467 388.958 259.467H262.327C259.757 259.467 257.529 261.521 257.529 263.917V342.655H393.584V263.917H393.756Z" fill="url(#paint15_linear_413_1263)"/>
<path d="M262.498 357.547H389.129C391.699 357.547 393.927 355.493 393.927 353.096V342.826H257.872V353.096C257.7 355.493 259.928 357.547 262.498 357.547Z" fill="#CA3F3A"/>
<path d="M345.606 355.664H311.678V371.754H345.606V355.664Z" fill="#CA3F3A"/>
<path d="M349.717 355.664H315.789V371.754H349.717V355.664Z" fill="url(#paint16_linear_413_1263)"/>
<path d="M344.063 370.213H302.081V374.835H344.063V370.213Z" fill="url(#paint17_linear_413_1263)"/>
<path d="M357.771 370.213H315.789V374.835H357.771V370.213Z" fill="url(#paint18_linear_413_1263)"/>
<path d="M400.782 263.917C400.782 261.349 398.726 259.467 395.984 259.467H269.524C266.954 259.467 264.727 261.521 264.727 263.917V342.655H400.782V263.917Z" fill="url(#paint19_linear_413_1263)"/>
<path d="M269.524 357.547H396.155C398.725 357.547 400.953 355.493 400.953 353.096V342.826H264.898V353.096C264.726 355.493 266.783 357.547 269.524 357.547Z" fill="url(#paint20_linear_413_1263)"/>
<path opacity="0.2" d="M345.091 293.872C345.091 300.718 339.608 306.196 332.754 306.196C325.899 306.196 320.416 300.718 320.416 293.872C320.416 287.025 325.899 281.547 332.754 281.547C339.608 281.547 345.091 287.025 345.091 293.872Z" fill="white"/>
<path d="M230.111 370.213H200.81V374.664H230.111V370.213Z" fill="url(#paint21_linear_413_1263)"/>
<path d="M278.776 370.213H217.26V374.664H278.776V370.213Z" fill="url(#paint22_linear_413_1263)"/>
<g clip-path="url(#clip1_413_1263)">
<path d="M469.447 341.022H389.447V374.953H469.447V341.022Z" fill="#FCDDD4"/>
<path fill-rule="evenodd" clip-rule="evenodd" d="M429.892 332.177V332.254C430.527 330.485 431.798 327.669 433.935 323.469C438.177 315.427 442.912 309.249 442.912 309.249C442.912 309.249 440.841 316.114 436.599 324.155C432.848 331.352 430.794 334.256 429.892 334.696V335.106C430.979 333.677 433.372 331.226 437.585 327.391C444.589 321.115 451.494 316.604 451.494 316.604C451.494 316.604 447.055 322.39 440.052 328.764C435.944 332.451 433.222 334.661 431.523 335.794C433.253 334.725 435.943 333.258 439.855 331.314C448.535 326.999 456.427 324.351 456.427 324.351C456.427 324.351 450.311 328.764 441.63 333.079C435.019 336.44 431.44 337.867 429.892 338.14V338.435C431.284 337.664 434.845 336.428 441.63 334.55C451.198 331.902 459.583 330.726 459.583 330.726C459.583 330.726 452.283 333.962 442.715 336.61C439.596 337.473 437.105 338.107 435.155 338.549C437.131 338.22 439.682 337.866 442.912 337.492C453.072 336.217 461.556 336.315 461.556 336.315C461.556 336.315 453.566 338.473 443.405 339.65C435.225 340.676 431.201 340.812 429.892 340.52V340.728H428.905V340.588C428.723 340.641 428.469 340.684 428.116 340.728H425.255C423.085 340.63 419.83 340.434 415.292 339.846C405.132 338.571 397.142 336.511 397.142 336.511C397.142 336.511 405.625 336.413 415.785 337.688C418.838 338.042 421.285 338.369 423.213 338.669C421.314 338.232 418.929 337.621 415.982 336.806C406.315 334.158 399.114 330.922 399.114 330.922C399.114 330.922 407.499 332.098 417.067 334.746C424.021 336.67 427.589 337.921 428.905 338.687V338.341C427.414 338.091 423.824 336.634 417.068 333.275C408.387 328.96 402.271 324.547 402.271 324.547C402.271 324.547 410.163 327.195 418.844 331.51C422.51 333.333 425.103 334.735 426.838 335.785C425.11 334.599 422.464 332.435 418.646 328.96C411.642 322.586 407.203 316.8 407.203 316.8C407.203 316.8 414.108 321.213 421.112 327.587C424.123 330.327 426.204 332.361 427.543 333.82C426.392 332.331 424.606 329.389 422 324.449C417.758 316.408 415.687 309.543 415.687 309.543C415.687 309.543 420.52 315.721 424.663 323.763C427.053 328.402 428.36 331.377 428.905 333.101V332.179C428.375 330.962 428.017 327.445 428.017 320.429C428.017 311.406 429.398 304.052 429.398 304.052C429.398 304.052 430.779 311.406 430.779 320.429C430.779 327.441 430.422 330.958 429.892 332.177ZM428.905 335.049C428.759 335.038 428.568 334.928 428.326 334.706C428.553 334.976 428.746 335.218 428.905 335.435V335.049ZM428.905 336.91C428.665 336.847 428.353 336.711 427.962 336.493C428.34 336.744 428.653 336.967 428.905 337.164V336.91ZM429.892 336.892C430.163 336.685 430.496 336.452 430.898 336.191C430.484 336.437 430.152 336.598 429.892 336.683V336.892ZM428.905 339.57C428.588 339.591 428.139 339.569 427.543 339.497C428.174 339.658 428.62 339.808 428.905 339.947V339.57ZM429.892 339.79C430.262 339.62 430.85 339.431 431.693 339.227C430.89 339.347 430.298 339.394 429.892 339.379V339.79Z" fill="#F37753"/>
<path d="M424.071 340.728H405.625C408.486 340.532 411.938 340.434 415.588 340.434C419.139 340.434 422 340.532 424.071 340.728Z" fill="#F37753"/>
<path d="M434.626 340.728H453.072C450.212 340.532 446.759 340.336 443.109 340.434C439.46 340.532 436.698 340.63 434.626 340.728Z" fill="#F37753"/>
</g>
<path d="M302.447 179.052C302.447 168.006 311.402 159.052 322.447 159.052H435.066C446.112 159.052 455.066 168.006 455.066 179.052V205.664C455.066 216.71 446.112 225.664 435.066 225.664H302.447V179.052Z" fill="#F69477"/>
<circle opacity="0.5" cx="337.018" cy="192.78" r="5.05919" fill="white"/>
<circle opacity="0.5" cx="358.098" cy="192.78" r="5.05919" fill="white"/>
<circle opacity="0.5" cx="379.178" cy="192.78" r="5.05919" fill="white"/>
<circle opacity="0.5" cx="400.258" cy="192.78" r="5.05919" fill="white"/>
<circle opacity="0.5" cx="421.338" cy="192.78" r="5.05919" fill="white"/>
</g>
<defs>
<linearGradient id="paint0_linear_413_1263" x1="185.855" y1="58.1181" x2="103.403" y2="208.965" gradientUnits="userSpaceOnUse">
<stop stop-color="#F37753"/>
<stop offset="1" stop-color="white" stop-opacity="0"/>
</linearGradient>
<linearGradient id="paint1_linear_413_1263" x1="98.9688" y1="24.0345" x2="146.575" y2="350.013" gradientUnits="userSpaceOnUse">
<stop stop-color="#F7A58D"/>
<stop offset="1" stop-color="#F58A6B"/>
</linearGradient>
<linearGradient id="paint2_linear_413_1263" x1="247.235" y1="262.548" x2="244.181" y2="228.762" gradientUnits="userSpaceOnUse">
<stop stop-color="#FFB3B6"/>
<stop offset="1" stop-color="#FFC8C1"/>
</linearGradient>
<linearGradient id="paint3_linear_413_1263" x1="219.827" y1="258.589" x2="248.561" y2="268.937" gradientUnits="userSpaceOnUse">
<stop stop-color="#FFB3B6" stop-opacity="0.31"/>
<stop offset="1" stop-color="#FFC8C1"/>
</linearGradient>
<linearGradient id="paint4_linear_413_1263" x1="272.81" y1="316.46" x2="266.681" y2="253.259" gradientUnits="userSpaceOnUse">
<stop stop-color="#FFB3B6"/>
<stop offset="1" stop-color="white"/>
</linearGradient>
<linearGradient id="paint5_linear_413_1263" x1="271.32" y1="249.908" x2="265.436" y2="199.279" gradientUnits="userSpaceOnUse">
<stop stop-color="#FFB3B6"/>
<stop offset="1" stop-color="#FFC8C1"/>
</linearGradient>
<linearGradient id="paint6_linear_413_1263" x1="232.5" y1="251.693" x2="232.5" y2="377.748" gradientUnits="userSpaceOnUse">
<stop stop-color="#F4A984"/>
<stop offset="1" stop-color="#EE4D47"/>
</linearGradient>
<linearGradient id="paint7_linear_413_1263" x1="174.156" y1="271.072" x2="174.156" y2="377.379" gradientUnits="userSpaceOnUse">
<stop stop-color="#F4A984"/>
<stop offset="1" stop-color="#EE4D47"/>
</linearGradient>
<linearGradient id="paint8_linear_413_1263" x1="232.338" y1="148.853" x2="232.338" y2="216.082" gradientUnits="userSpaceOnUse">
<stop stop-color="#F4A984"/>
<stop offset="1" stop-color="#EE4D47"/>
</linearGradient>
<linearGradient id="paint9_linear_413_1263" x1="198.582" y1="204.334" x2="198.582" y2="232.346" gradientUnits="userSpaceOnUse">
<stop stop-color="#F4A984"/>
<stop offset="1" stop-color="#EE4D47"/>
</linearGradient>
<linearGradient id="paint10_linear_413_1263" x1="190.1" y1="206.417" x2="190.1" y2="230.55" gradientUnits="userSpaceOnUse">
<stop stop-color="#F4A984"/>
<stop offset="1" stop-color="#EE4D47"/>
</linearGradient>
<linearGradient id="paint11_linear_413_1263" x1="265.736" y1="204.676" x2="265.736" y2="232.688" gradientUnits="userSpaceOnUse">
<stop stop-color="#F4A984"/>
<stop offset="1" stop-color="#EE4D47"/>
</linearGradient>
<linearGradient id="paint12_linear_413_1263" x1="274.063" y1="206.759" x2="274.063" y2="230.892" gradientUnits="userSpaceOnUse">
<stop stop-color="#F4A984"/>
<stop offset="1" stop-color="#EE4D47"/>
</linearGradient>
<linearGradient id="paint13_linear_413_1263" x1="218.116" y1="249.573" x2="218.116" y2="257.762" gradientUnits="userSpaceOnUse">
<stop stop-color="#F4A984"/>
<stop offset="1" stop-color="#EE4D47"/>
</linearGradient>
<linearGradient id="paint14_linear_413_1263" x1="191.447" y1="288.552" x2="213.947" y2="204.552" gradientUnits="userSpaceOnUse">
<stop stop-color="#FFB3B6"/>
<stop offset="0.239165" stop-color="#FFC5C7"/>
<stop offset="1" stop-color="white"/>
</linearGradient>
<linearGradient id="paint15_linear_413_1263" x1="306.552" y1="510.315" x2="306.552" y2="25.2427" gradientUnits="userSpaceOnUse">

<stop stop-color="#FFEDBA"/>
<stop offset="0.423008" stop-color="#F16D5E"/>
<stop offset="0.651925" stop-color="#EE4D47"/>
</linearGradient>
<linearGradient id="paint16_linear_413_1263" x1="327.998" y1="404.182" x2="327.998" y2="310.361" gradientUnits="userSpaceOnUse">
<stop stop-color="#FFEDBA"/>
<stop offset="1" stop-color="#EE4D47"/>
</linearGradient>
<linearGradient id="paint17_linear_413_1263" x1="317.189" y1="392.324" x2="317.189" y2="365.824" gradientUnits="userSpaceOnUse">
<stop stop-color="#FFEDBA"/>
<stop offset="1" stop-color="#EE4D47"/>
</linearGradient>
<linearGradient id="paint18_linear_413_1263" x1="330.897" y1="384.149" x2="330.897" y2="357.201" gradientUnits="userSpaceOnUse">
<stop stop-color="#FFEDBA"/>
<stop offset="1" stop-color="#EE4D47"/>
</linearGradient>
<linearGradient id="paint19_linear_413_1263" x1="313.688" y1="397.093" x2="313.688" y2="180.459" gradientUnits="userSpaceOnUse">
<stop stop-color="#FFEDBA"/>
<stop offset="1" stop-color="#EE4D47"/>
</linearGradient>
<linearGradient id="paint20_linear_413_1263" x1="313.852" y1="387.215" x2="313.852" y2="301.379" gradientUnits="userSpaceOnUse">
<stop stop-color="#FFEDBA"/>
<stop offset="1" stop-color="#EE4D47"/>
</linearGradient>
<linearGradient id="paint21_linear_413_1263" x1="211.354" y1="391.505" x2="211.354" y2="365.986" gradientUnits="userSpaceOnUse">
<stop stop-color="#FFEDBA"/>
<stop offset="1" stop-color="#EE4D47"/>
</linearGradient>
<linearGradient id="paint22_linear_413_1263" x1="239.397" y1="370.184" x2="239.397" y2="350.769" gradientUnits="userSpaceOnUse">
<stop stop-color="#FFEDBA"/>
<stop offset="1" stop-color="#EE4D47"/>
</linearGradient>
<clipPath id="clip0_413_1263">
<rect width="488" height="408" fill="white"/>
</clipPath>
<clipPath id="clip1_413_1263">
<rect width="80" height="71" fill="white" transform="translate(389.447 304.052)"/>
</clipPath>
</defs>
</svg>
